<svg width="26" height="22" viewBox="0 0 26 22" fill="none" xmlns="http://www.w3.org/2000/svg">
<path d="M11.5556 2.43993C10.3323 3.1719 9.34334 3.809 8.58859 4.3512C7.83383 4.8663 7.06607 5.55761 6.28528 6.42514C5.55656 7.23845 4.997 8.09242 4.60661 8.98706C4.21622 9.8817 3.94294 11.0339 3.78679 12.4436H5.66066C7.27427 12.4436 8.53654 12.8638 9.44745 13.7043C10.3844 14.5176 10.8529 15.724 10.8529 17.3235C10.8529 18.4621 10.4364 19.533 9.6036 20.536C8.7968 21.512 7.67768 22 6.24625 22C4.00801 22 2.40741 21.2409 1.44444 19.7227C0.481481 18.1775 0 16.1577 0 13.6636C0 11.9014 0.364364 10.3019 1.09309 8.86506C1.82182 7.40111 2.70671 6.09982 3.74775 4.96118C4.81481 3.79544 5.94695 2.80591 7.14414 1.99261C8.34134 1.1793 9.34334 0.515096 10.1502 0L11.5556 2.43993ZM26 2.43993C24.7768 3.1719 23.7878 3.809 23.033 4.3512C22.2783 4.8663 21.5105 5.55761 20.7297 6.42514C19.975 7.26556 19.4024 8.13309 19.012 9.02773C18.6476 9.89526 18.3874 11.0339 18.2312 12.4436H20.1051C21.7187 12.4436 22.981 12.8638 23.8919 13.7043C24.8288 14.5176 25.2973 15.724 25.2973 17.3235C25.2973 18.4621 24.8809 19.533 24.048 20.536C23.2412 21.512 22.1221 22 20.6907 22C18.4525 22 16.8519 21.2409 15.8889 19.7227C14.9259 18.1775 14.4444 16.1577 14.4444 13.6636C14.4444 11.9014 14.8088 10.3019 15.5375 8.86506C16.2663 7.40111 17.1512 6.09982 18.1922 4.96118C19.2593 3.79544 20.3914 2.80591 21.5886 1.99261C22.7858 1.1793 23.7878 0.515096 24.5946 0L26 2.43993Z" fill="#B9B6B3"/>
</svg>
